<svg width="524" height="77" xmlns="http://www.w3.org/2000/svg" xmlns:xlink="http://www.w3.org/1999/xlink"><defs><path d="M55.123 24.804v16.508a.641.641 0 0 1-.641.642H18.089a.639.639 0 0 1-.641-.642V15.398a.64.64 0 0 1 .64-.64h36.394a.64.64 0 0 1 .64.64M71.205.302H1.354A1.184 1.184 0 0 0 .167 1.489v53.734c0 .656.53 1.185 1.185 1.185h69.85a1.184 1.184 0 0 0 1.184-1.185V1.49c0-.655-.53-1.186-1.184-1.187" id="a"/><path d="M55.123 24.804v16.508a.641.641 0 0 1-.641.642H18.089a.639.639 0 0 1-.641-.642V15.398a.64.64 0 0 1 .64-.64h36.394a.64.64 0 0 1 .64.64M71.205.302H1.354A1.184 1.184 0 0 0 .167 1.489v53.734c0 .656.53 1.185 1.185 1.185h69.85a1.184 1.184 0 0 0 1.184-1.185V1.49c0-.655-.53-1.186-1.184-1.187" id="c"/><path d="M55.123 24.804v16.508a.641.641 0 0 1-.641.642H18.089a.639.639 0 0 1-.641-.642V15.398a.64.64 0 0 1 .64-.64h36.394a.64.64 0 0 1 .64.64M71.205.302H1.354A1.184 1.184 0 0 0 .167 1.489v53.734c0 .656.53 1.185 1.185 1.185h69.85a1.184 1.184 0 0 0 1.184-1.185V1.49c0-.655-.53-1.186-1.184-1.187" id="e"/></defs><g fill="none" fill-rule="evenodd"><g transform="translate(182.88 19.477)"><mask id="b" fill="#fff"><use xlink:href="#a"/></mask><path d="M17.448 41.312V15.398a.64.64 0 0 1 .64-.64h21.056L19.268.303H1.354A1.187 1.187 0 0 0 .17 1.489v54.92s11.399-6.567 25.109-14.455h-7.19a.639.639 0 0 1-.641-.642" fill="#FFF" fill-rule="nonzero" mask="url(#b)"/></g><g transform="translate(182.88 19.477)"><mask id="d" fill="#fff"><use xlink:href="#c"/></mask><path d="M71.204.302H19.268l19.876 14.457h15.338a.64.64 0 0 1 .64.639v9.408c9.66-5.54 17.128-9.6 17.267-9.626V1.489c0-.655-.53-1.186-1.185-1.187" fill="#DD424C" fill-rule="nonzero" mask="url(#d)"/></g><g transform="translate(182.88 19.477)"><mask id="f" fill="#fff"><use xlink:href="#e"/></mask><path d="M72.389 15.218v-.04c-.14.026-7.607 4.086-17.266 9.623V41.31a.641.641 0 0 1-.641.641H25.279C11.569 49.841.167 56.408.167 56.408h71.035a1.184 1.184 0 0 0 1.184-1.197V15.218" fill="#2B9CA7" fill-rule="nonzero" mask="url(#f)"/></g><path d="M213.364 14.033c0-.354.287-.644.643-.644h10.334c.355 0 .642.288.642.644v4.027h5.264V9.415a1.185 1.185 0 0 0-1.187-1.187h-19.8a1.184 1.184 0 0 0-1.184 1.187v8.642h5.288v-4.024" fill="#DD424C" fill-rule="nonzero"/><path d="M353.262 51.261v5.516c0 .464-.24.922-.615 1.19-4.072 2.894-8.082 4.357-11.927 4.357-3.738 0-5.472-1.496-5.472-4.716v-2.069c0-2.896 1.356-4.215 4.385-4.278h13.63zm-4.182-32.23c-9.002 0-18.455.887-28.102 2.627l-.792.144 1.734 12.455.778-.048c9.142-.579 16.74-.869 22.573-.869 3.983 0 5.675.675 6.395 1.238.984.773 1.532 1.293 1.596 3.754v1.558h-18.309c-5.328 0-9.57 1.276-12.604 3.787-3.087 2.55-4.659 6.136-4.659 10.663v5.449c0 5.099 1.749 9.144 5.2 12.022 3.397 2.842 7.823 4.28 13.152 4.28 7.508 0 13.992-2.86 19.304-8.505l1.216 6.08a1.39 1.39 0 0 0 1.363 1.118h11.725a1.39 1.39 0 0 0 1.39-1.393v-34.95c0-7.475-1.833-11.698-5.422-14.794-3.546-3.062-9.109-4.615-16.538-4.615zm105.924 23.885h-14.349c.27-4.225 1.053-7.064 2.34-8.443 1.352-1.453 4-2.188 7.872-2.188 3.283 0 5.53.438 6.678 1.304 1.08.81 1.627 2.36 1.627 4.609 0 1.625-.294 2.85-.87 3.646-.525.71-1.63 1.072-3.298 1.072zm17.5 7.373c2.728-2.654 4.116-6.65 4.116-11.883-.08-6.555-2.237-11.515-6.42-14.756-4.118-3.187-10.803-4.803-19.873-4.803-10.052 0-17.333 2.21-21.645 6.565-4.314 4.352-6.5 11.989-6.5 22.697 0 10.205 2.244 16.626 6.66 21.121 4.42 4.5 11.868 6.785 22.138 6.785 10.085 0 18.074-1.389 23.75-4.115l.557-.27-1.737-11.42-.792.081c-7.563.793-14.268 1.197-19.931 1.197-4.082 0-7.01-.622-8.7-1.86-1.503-1.087-2.529-2.197-3.063-5.343h18.4c5.932 0 10.32-1.345 13.04-3.998v.002zm-68.526-35.25c.885-.855 2.579-1.29 5.022-1.29h10.844l1.74-12.188-.79-.146c-4.03-.73-9.935-1.101-17.558-1.101-12.25 0-18.462 5.853-18.462 17.392v7.378l-9.356-.005v12.415h9.356V73.56c0 .768.622 1.393 1.392 1.393h15.1c.771 0 1.393-.622 1.393-1.393V37.494h14.794V25.079H402.66v-5.197c0-2.366.445-3.998 1.316-4.843h.003zm115.658 3.023c-6.987 0-14.108 2.909-21.19 8.642l-1.077-6.528a1.393 1.393 0 0 0-1.368-1.144h-11.492c-.77 0-1.393.624-1.393 1.393v53.136c0 .768.622 1.393 1.393 1.393h14.995c.765 0 1.39-.622 1.39-1.393v-34.41c0-.609.426-1.164 1.005-1.348 6.491-2.088 11.391-3.141 14.583-3.141h5.104l1.813-16.6h-3.763zM39.527 45.461H26.411a1.206 1.206 0 0 1-1.14-1.515C29.455 27.99 32 17.94 32.905 13.8c.228 1.202.606 2.834 1.13 4.903.507 1.999 2.718 10.411 6.632 25.234a1.21 1.21 0 0 1-1.139 1.525v-.002zm6.147-43.565a1.187 1.187 0 0 0-1.146-.876h-23.39c-.54 0-1.006.359-1.147.878L.569 74.148a1.188 1.188 0 0 0 1.147 1.496H16.83c.533-.001 1-.358 1.142-.872l4.426-15.948c.142-.514.61-.87 1.144-.87h18.675c.53 0 .997.355 1.141.87l4.426 15.948c.142.515.608.872 1.142.872H64.04c.78 0 1.35-.742 1.147-1.499L45.674 1.896zm41.72-.879H71.512c-.656 0-1.187.532-1.187 1.188v72.361c0 .656.534 1.188 1.187 1.188h15.88c.656 0 1.187-.532 1.187-1.188V2.202c0-.655-.531-1.187-1.187-1.187v.002zm87.545 18.764H106.25c-5.935.003-10.745 4.818-10.743 10.756v43.92c0 .655.526 1.187 1.184 1.187h15.88a1.187 1.187 0 0 0 1.185-1.188V35.64c0-.656.533-1.188 1.187-1.188h10.559c.655 0 1.186.532 1.186 1.188v38.817c0 .656.532 1.188 1.187 1.188h15.88a1.187 1.187 0 0 0 1.185-1.188v-38.95c0-.655.531-1.186 1.187-1.186h10.561c.653 0 1.184.531 1.184 1.185v38.949c0 .658.532 1.19 1.187 1.19h15.88a1.187 1.187 0 0 0 1.185-1.188V20.97c0-.655-.53-1.187-1.185-1.188zM296.885 40.3h-14.38c-.969 0-1.785-.328-2.426-.968a3.31 3.31 0 0 1-.964-2.425c0-.979.318-1.484.964-2.135.646-.646 1.462-.972 2.429-.972h23.685c.646 0 1.168-.522 1.168-1.168V20.906c0-.645-.523-1.168-1.168-1.168h-29.851c-4.683 0-8.494 1.436-11.337 4.276-2.833 2.832-4.27 6.65-4.27 11.352v3.595c0 4.702 1.435 8.518 4.27 11.35 2.833 2.837 6.647 4.273 11.337 4.273h17.773v3.392c0 .97-.326 1.786-.967 2.425-.65.652-1.447.97-2.426.97h-28.818a1.17 1.17 0 0 0-1.17 1.17v11.946c0 .647.527 1.173 1.173 1.173h34.98c4.69 0 8.505-1.44 11.337-4.275 2.833-2.835 4.269-6.655 4.269-11.35v-4.108c0-4.7-1.436-8.52-4.269-11.352-2.832-2.84-6.651-4.275-11.339-4.275z" fill="#FFF" fill-rule="nonzero"/></g></svg>